<mxfile host="app.diagrams.net" modified="2023-12-15T08:30:00.000Z" agent="5.0 (Windows NT 10.0; Win64; x64) AppleWebKit/537.36 (KHTML, like Gecko) Chrome/92.0.4515.131 Safari/537.36" etag="Unique_ID_Here" version="15.9.1" type="device">
  <diagram id="FStudyMate_Auth" name="Authentication and User Management">
    <mxGraphModel dx="1422" dy="762" grid="1" gridSize="10" guides="1" tooltips="1" connect="1" arrows="1" fold="1" page="1" pageScale="1" pageWidth="827" pageHeight="1169" math="0" shadow="0">
      <root>
        <mxCell id="0" />
        <mxCell id="1" parent="0" />
        
        <!-- Controllers -->
        <mxCell id="authController" value="AuthController" style="swimlane;fontStyle=1;align=center;verticalAlign=top;childLayout=stackLayout;horizontal=1;startSize=26;horizontalStack=0;resizeParent=1;resizeParentMax=0;resizeLast=0;collapsible=1;marginBottom=0;fillColor=#dae8fc;strokeColor=#6c8ebf;" vertex="1" parent="1">
          <mxGeometry x="280" y="40" width="220" height="120" as="geometry" />
        </mxCell>
        <mxCell id="authController_fields" value="- authService: AuthService&#xa;- userRepository: UserRepository&#xa;- otpService: OtpService" style="text;strokeColor=none;fillColor=none;align=left;verticalAlign=top;spacingLeft=4;spacingRight=4;overflow=hidden;rotatable=0;points=[[0,0.5],[1,0.5]];portConstraint=eastwest;" vertex="1" parent="authController">
          <mxGeometry y="26" width="220" height="54" as="geometry" />
        </mxCell>
        <mxCell id="authController_methods" value="+ login(LoginRequest): ResponseEntity&#xa;+ register(RegisterRequest): ResponseEntity&#xa;+ verifyOtp(String, String): ResponseEntity" style="text;strokeColor=none;fillColor=none;align=left;verticalAlign=top;spacingLeft=4;spacingRight=4;overflow=hidden;rotatable=0;points=[[0,0.5],[1,0.5]];portConstraint=eastwest;" vertex="1" parent="authController">
          <mxGeometry y="80" width="220" height="40" as="geometry" />
        </mxCell>
        
        <mxCell id="userController" value="UserController" style="swimlane;fontStyle=1;align=center;verticalAlign=top;childLayout=stackLayout;horizontal=1;startSize=26;horizontalStack=0;resizeParent=1;resizeParentMax=0;resizeLast=0;collapsible=1;marginBottom=0;fillColor=#dae8fc;strokeColor=#6c8ebf;" vertex="1" parent="1">
          <mxGeometry x="540" y="40" width="210" height="100" as="geometry" />
        </mxCell>
        <mxCell id="userController_fields" value="- userRepository: UserRepository" style="text;strokeColor=none;fillColor=none;align=left;verticalAlign=top;spacingLeft=4;spacingRight=4;overflow=hidden;rotatable=0;points=[[0,0.5],[1,0.5]];portConstraint=eastwest;" vertex="1" parent="userController">
          <mxGeometry y="26" width="210" height="24" as="geometry" />
        </mxCell>
        <mxCell id="userController_methods" value="+ getUserProfile(Integer): ResponseEntity&#xa;+ updateProfile(Integer, UserDTO): ResponseEntity&#xa;+ getAllUsers(): ResponseEntity" style="text;strokeColor=none;fillColor=none;align=left;verticalAlign=top;spacingLeft=4;spacingRight=4;overflow=hidden;rotatable=0;points=[[0,0.5],[1,0.5]];portConstraint=eastwest;" vertex="1" parent="userController">
          <mxGeometry y="50" width="210" height="50" as="geometry" />
        </mxCell>
        
        <!-- Service Interfaces -->
        <mxCell id="authService" value="«interface»&#xa;AuthService" style="swimlane;fontStyle=1;align=center;verticalAlign=top;childLayout=stackLayout;horizontal=1;startSize=40;horizontalStack=0;resizeParent=1;resizeParentMax=0;resizeLast=0;collapsible=1;marginBottom=0;fillColor=#d5e8d4;strokeColor=#82b366;" vertex="1" parent="1">
          <mxGeometry x="280" y="200" width="220" height="130" as="geometry" />
        </mxCell>
        <mxCell id="authService_methods" value="+ login(String, String): User&#xa;+ register(User): User&#xa;+ verifyToken(String): boolean&#xa;+ resetPassword(String): boolean&#xa;+ changePassword(Integer, String, String): boolean&#xa;+ getUserById(Integer): User" style="text;strokeColor=none;fillColor=none;align=left;verticalAlign=top;spacingLeft=4;spacingRight=4;overflow=hidden;rotatable=0;points=[[0,0.5],[1,0.5]];portConstraint=eastwest;" vertex="1" parent="authService">
          <mxGeometry y="40" width="220" height="90" as="geometry" />
        </mxCell>
        
        <mxCell id="otpService" value="«interface»&#xa;OtpService" style="swimlane;fontStyle=1;align=center;verticalAlign=top;childLayout=stackLayout;horizontal=1;startSize=40;horizontalStack=0;resizeParent=1;resizeParentMax=0;resizeLast=0;collapsible=1;marginBottom=0;fillColor=#d5e8d4;strokeColor=#82b366;" vertex="1" parent="1">
          <mxGeometry x="540" y="200" width="210" height="110" as="geometry" />
        </mxCell>
        <mxCell id="otpService_methods" value="+ generateOtp(String): String&#xa;+ validateOtp(String, String): boolean&#xa;+ saveOtp(String, String): void&#xa;+ deleteOtp(String): void" style="text;strokeColor=none;fillColor=none;align=left;verticalAlign=top;spacingLeft=4;spacingRight=4;overflow=hidden;rotatable=0;points=[[0,0.5],[1,0.5]];portConstraint=eastwest;" vertex="1" parent="otpService">
          <mxGeometry y="40" width="210" height="70" as="geometry" />
        </mxCell>
        
        <!-- Service Implementations -->
        <mxCell id="authServiceImpl" value="AuthServiceImpl" style="swimlane;fontStyle=1;align=center;verticalAlign=top;childLayout=stackLayout;horizontal=1;startSize=26;horizontalStack=0;resizeParent=1;resizeParentMax=0;resizeLast=0;collapsible=1;marginBottom=0;fillColor=#ffe6cc;strokeColor=#d79b00;" vertex="1" parent="1">
          <mxGeometry x="280" y="380" width="220" height="140" as="geometry" />
        </mxCell>
        <mxCell id="authServiceImpl_fields" value="- userRepository: UserRepository&#xa;- otpRepository: OtpRepository&#xa;- emailService: EmailService" style="text;strokeColor=none;fillColor=none;align=left;verticalAlign=top;spacingLeft=4;spacingRight=4;overflow=hidden;rotatable=0;points=[[0,0.5],[1,0.5]];portConstraint=eastwest;" vertex="1" parent="authServiceImpl">
          <mxGeometry y="26" width="220" height="54" as="geometry" />
        </mxCell>
        <mxCell id="authServiceImpl_methods" value="+ login(String, String): User&#xa;+ register(User): User&#xa;+ verifyToken(String): boolean&#xa;+ resetPassword(String): boolean&#xa;+ changePassword(Integer, String, String): boolean" style="text;strokeColor=none;fillColor=none;align=left;verticalAlign=top;spacingLeft=4;spacingRight=4;overflow=hidden;rotatable=0;points=[[0,0.5],[1,0.5]];portConstraint=eastwest;" vertex="1" parent="authServiceImpl">
          <mxGeometry y="80" width="220" height="60" as="geometry" />
        </mxCell>
        
        <mxCell id="otpServiceImpl" value="OtpServiceImpl" style="swimlane;fontStyle=1;align=center;verticalAlign=top;childLayout=stackLayout;horizontal=1;startSize=26;horizontalStack=0;resizeParent=1;resizeParentMax=0;resizeLast=0;collapsible=1;marginBottom=0;fillColor=#ffe6cc;strokeColor=#d79b00;" vertex="1" parent="1">
          <mxGeometry x="540" y="380" width="210" height="120" as="geometry" />
        </mxCell>
        <mxCell id="otpServiceImpl_fields" value="- otpRepository: OtpRepository&#xa;- emailService: EmailService" style="text;strokeColor=none;fillColor=none;align=left;verticalAlign=top;spacingLeft=4;spacingRight=4;overflow=hidden;rotatable=0;points=[[0,0.5],[1,0.5]];portConstraint=eastwest;" vertex="1" parent="otpServiceImpl">
          <mxGeometry y="26" width="210" height="34" as="geometry" />
        </mxCell>
        <mxCell id="otpServiceImpl_methods" value="+ generateOtp(String): String&#xa;+ validateOtp(String, String): boolean&#xa;+ saveOtp(String, String): void&#xa;+ deleteOtp(String): void" style="text;strokeColor=none;fillColor=none;align=left;verticalAlign=top;spacingLeft=4;spacingRight=4;overflow=hidden;rotatable=0;points=[[0,0.5],[1,0.5]];portConstraint=eastwest;" vertex="1" parent="otpServiceImpl">
          <mxGeometry y="60" width="210" height="60" as="geometry" />
        </mxCell>
        
        <!-- Entity Classes -->
        <mxCell id="user" value="User" style="swimlane;fontStyle=1;align=center;verticalAlign=top;childLayout=stackLayout;horizontal=1;startSize=26;horizontalStack=0;resizeParent=1;resizeParentMax=0;resizeLast=0;collapsible=1;marginBottom=0;fillColor=#f8cecc;strokeColor=#b85450;" vertex="1" parent="1">
          <mxGeometry x="40" y="200" width="190" height="210" as="geometry" />
        </mxCell>
        <mxCell id="user_fields" value="- id: Integer&#xa;- username: String&#xa;- email: String&#xa;- password: String&#xa;- fullName: String&#xa;- role: String&#xa;- classId: String&#xa;- createdAt: LocalDateTime&#xa;- quizzes: List&lt;Quiz&gt;&#xa;- quizTakens: List&lt;QuizTaken&gt;" style="text;strokeColor=none;fillColor=none;align=left;verticalAlign=top;spacingLeft=4;spacingRight=4;overflow=hidden;rotatable=0;points=[[0,0.5],[1,0.5]];portConstraint=eastwest;" vertex="1" parent="user">
          <mxGeometry y="26" width="190" height="154" as="geometry" />
        </mxCell>
        <mxCell id="user_methods" value="+ getId(): Integer&#xa;+ getUsername(): String&#xa;+ getRole(): String" style="text;strokeColor=none;fillColor=none;align=left;verticalAlign=top;spacingLeft=4;spacingRight=4;overflow=hidden;rotatable=0;points=[[0,0.5],[1,0.5]];portConstraint=eastwest;" vertex="1" parent="user">
          <mxGeometry y="180" width="190" height="30" as="geometry" />
        </mxCell>
        
        <mxCell id="otpEntity" value="OtpEntity" style="swimlane;fontStyle=1;align=center;verticalAlign=top;childLayout=stackLayout;horizontal=1;startSize=26;horizontalStack=0;resizeParent=1;resizeParentMax=0;resizeLast=0;collapsible=1;marginBottom=0;fillColor=#f8cecc;strokeColor=#b85450;" vertex="1" parent="1">
          <mxGeometry x="40" y="450" width="190" height="120" as="geometry" />
        </mxCell>
        <mxCell id="otpEntity_fields" value="- id: Long&#xa;- email: String&#xa;- otp: String&#xa;- expiryTime: LocalDateTime&#xa;- verified: boolean" style="text;strokeColor=none;fillColor=none;align=left;verticalAlign=top;spacingLeft=4;spacingRight=4;overflow=hidden;rotatable=0;points=[[0,0.5],[1,0.5]];portConstraint=eastwest;" vertex="1" parent="otpEntity">
          <mxGeometry y="26" width="190" height="94" as="geometry" />
        </mxCell>
        
        <!-- Repository Interfaces -->
        <mxCell id="userRepository" value="«interface»&#xa;UserRepository" style="swimlane;fontStyle=1;align=center;verticalAlign=top;childLayout=stackLayout;horizontal=1;startSize=40;horizontalStack=0;resizeParent=1;resizeParentMax=0;resizeLast=0;collapsible=1;marginBottom=0;fillColor=#e1d5e7;strokeColor=#9673a6;" vertex="1" parent="1">
          <mxGeometry x="40" y="600" width="250" height="120" as="geometry" />
        </mxCell>
        <mxCell id="userRepository_methods" value="+ findByUsername(String): Optional&lt;User&gt;&#xa;+ findByEmail(String): Optional&lt;User&gt;&#xa;+ findById(Integer): Optional&lt;User&gt;&#xa;+ save(User): User&#xa;+ findAllByRole(String): List&lt;User&gt;" style="text;strokeColor=none;fillColor=none;align=left;verticalAlign=top;spacingLeft=4;spacingRight=4;overflow=hidden;rotatable=0;points=[[0,0.5],[1,0.5]];portConstraint=eastwest;" vertex="1" parent="userRepository">
          <mxGeometry y="40" width="250" height="80" as="geometry" />
        </mxCell>
        
        <mxCell id="otpRepository" value="«interface»&#xa;OtpRepository" style="swimlane;fontStyle=1;align=center;verticalAlign=top;childLayout=stackLayout;horizontal=1;startSize=40;horizontalStack=0;resizeParent=1;resizeParentMax=0;resizeLast=0;collapsible=1;marginBottom=0;fillColor=#e1d5e7;strokeColor=#9673a6;" vertex="1" parent="1">
          <mxGeometry x="330" y="600" width="250" height="120" as="geometry" />
        </mxCell>
        <mxCell id="otpRepository_methods" value="+ findByEmail(String): Optional&lt;OtpEntity&gt;&#xa;+ findByEmailAndOtp(String, String): Optional&lt;OtpEntity&gt;&#xa;+ save(OtpEntity): OtpEntity&#xa;+ deleteByEmail(String): void&#xa;+ deleteExpiredOtps(): void" style="text;strokeColor=none;fillColor=none;align=left;verticalAlign=top;spacingLeft=4;spacingRight=4;overflow=hidden;rotatable=0;points=[[0,0.5],[1,0.5]];portConstraint=eastwest;" vertex="1" parent="otpRepository">
          <mxGeometry y="40" width="250" height="80" as="geometry" />
        </mxCell>
        
        <!-- Security Classes -->
        <mxCell id="securityConfig" value="SecurityConfig" style="swimlane;fontStyle=1;align=center;verticalAlign=top;childLayout=stackLayout;horizontal=1;startSize=26;horizontalStack=0;resizeParent=1;resizeParentMax=0;resizeLast=0;collapsible=1;marginBottom=0;fillColor=#fff2cc;strokeColor=#d6b656;" vertex="1" parent="1">
          <mxGeometry x="610" y="600" width="210" height="90" as="geometry" />
        </mxCell>
        <mxCell id="securityConfig_fields" value="- authService: AuthService" style="text;strokeColor=none;fillColor=none;align=left;verticalAlign=top;spacingLeft=4;spacingRight=4;overflow=hidden;rotatable=0;points=[[0,0.5],[1,0.5]];portConstraint=eastwest;" vertex="1" parent="securityConfig">
          <mxGeometry y="26" width="210" height="24" as="geometry" />
        </mxCell>
        <mxCell id="securityConfig_methods" value="+ configure(HttpSecurity): void&#xa;+ passwordEncoder(): PasswordEncoder" style="text;strokeColor=none;fillColor=none;align=left;verticalAlign=top;spacingLeft=4;spacingRight=4;overflow=hidden;rotatable=0;points=[[0,0.5],[1,0.5]];portConstraint=eastwest;" vertex="1" parent="securityConfig">
          <mxGeometry y="50" width="210" height="40" as="geometry" />
        </mxCell>
        
        <!-- Connections -->
        <!-- Controller to Service -->
        <mxCell id="edge1" value="" style="endArrow=open;endSize=12;dashed=1;html=1;fontSize=12;entryX=0.5;entryY=0;entryDx=0;entryDy=0;exitX=0.5;exitY=1;exitDx=0;exitDy=0;" edge="1" parent="1" source="authController" target="authService">
          <mxGeometry width="160" relative="1" as="geometry">
            <mxPoint x="390" y="170" as="sourcePoint" />
            <mxPoint x="550" y="170" as="targetPoint" />
          </mxGeometry>
        </mxCell>
        
        <mxCell id="edge2" value="" style="endArrow=open;endSize=12;dashed=1;html=1;fontSize=12;entryX=0.75;entryY=0;entryDx=0;entryDy=0;exitX=0.25;exitY=1;exitDx=0;exitDy=0;" edge="1" parent="1" source="authController" target="user">
          <mxGeometry width="160" relative="1" as="geometry">
            <mxPoint x="400" y="170" as="sourcePoint" />
            <mxPoint x="400" y="210" as="targetPoint" />
            <Array as="points">
              <mxPoint x="335" y="180" />
              <mxPoint x="183" y="180" />
            </Array>
          </mxGeometry>
        </mxCell>
        
        <mxCell id="edge3" value="" style="endArrow=open;endSize=12;dashed=1;html=1;fontSize=12;entryX=0.5;entryY=0;entryDx=0;entryDy=0;exitX=0.5;exitY=1;exitDx=0;exitDy=0;" edge="1" parent="1" source="userController" target="otpService">
          <mxGeometry width="160" relative="1" as="geometry">
            <mxPoint x="410" y="180" as="sourcePoint" />
            <mxPoint x="410" y="220" as="targetPoint" />
          </mxGeometry>
        </mxCell>
        
        <!-- Service to Implementation -->
        <mxCell id="edge4" value="" style="endArrow=block;endSize=16;endFill=0;html=1;fontSize=12;entryX=0.5;entryY=1;entryDx=0;entryDy=0;exitX=0.5;exitY=0;exitDx=0;exitDy=0;" edge="1" parent="1" source="authServiceImpl" target="authService">
          <mxGeometry width="160" relative="1" as="geometry">
            <mxPoint x="380" y="370" as="sourcePoint" />
            <mxPoint x="540" y="370" as="targetPoint" />
          </mxGeometry>
        </mxCell>
        
        <mxCell id="edge5" value="" style="endArrow=block;endSize=16;endFill=0;html=1;fontSize=12;entryX=0.5;entryY=1;entryDx=0;entryDy=0;exitX=0.5;exitY=0;exitDx=0;exitDy=0;" edge="1" parent="1" source="otpServiceImpl" target="otpService">
          <mxGeometry width="160" relative="1" as="geometry">
            <mxPoint x="400" y="390" as="sourcePoint" />
            <mxPoint x="400" y="340" as="targetPoint" />
          </mxGeometry>
        </mxCell>
        
        <!-- Implementation to Entity -->
        <mxCell id="edge6" value="" style="endArrow=open;endSize=12;dashed=1;html=1;fontSize=12;entryX=1;entryY=0.5;entryDx=0;entryDy=0;exitX=0;exitY=0.5;exitDx=0;exitDy=0;" edge="1" parent="1" source="authServiceImpl_fields" target="user_fields">
          <mxGeometry width="160" relative="1" as="geometry">
            <mxPoint x="360" y="430" as="sourcePoint" />
            <mxPoint x="520" y="430" as="targetPoint" />
          </mxGeometry>
        </mxCell>
        
        <mxCell id="edge7" value="" style="endArrow=open;endSize=12;dashed=1;html=1;fontSize=12;entryX=1;entryY=0.5;entryDx=0;entryDy=0;exitX=0;exitY=0.5;exitDx=0;exitDy=0;" edge="1" parent="1" source="otpServiceImpl_fields" target="otpEntity_fields">
          <mxGeometry width="160" relative="1" as="geometry">
            <mxPoint x="300" y="423" as="sourcePoint" />
            <mxPoint x="240" y="283" as="targetPoint" />
          </mxGeometry>
        </mxCell>
        
        <!-- Implementation to Repository -->
        <mxCell id="edge8" value="" style="endArrow=open;endSize=12;dashed=1;html=1;fontSize=12;entryX=0.5;entryY=0;entryDx=0;entryDy=0;exitX=0.25;exitY=1;exitDx=0;exitDy=0;" edge="1" parent="1" source="authServiceImpl" target="userRepository">
          <mxGeometry width="160" relative="1" as="geometry">
            <mxPoint x="300" y="530" as="sourcePoint" />
            <mxPoint x="120" y="590" as="targetPoint" />
            <Array as="points">
              <mxPoint x="335" y="550" />
              <mxPoint x="165" y="550" />
            </Array>
          </mxGeometry>
        </mxCell>
        
        <mxCell id="edge9" value="" style="endArrow=open;endSize=12;dashed=1;html=1;fontSize=12;entryX=0.5;entryY=0;entryDx=0;entryDy=0;exitX=0.5;exitY=1;exitDx=0;exitDy=0;" edge="1" parent="1" source="authServiceImpl" target="otpRepository">
          <mxGeometry width="160" relative="1" as="geometry">
            <mxPoint x="390" y="530" as="sourcePoint" />
            <mxPoint x="430" y="590" as="targetPoint" />
          </mxGeometry>
        </mxCell>
        
        <!-- Entity to Repository -->
        <mxCell id="edge10" value="" style="endArrow=open;endSize=12;dashed=1;html=1;fontSize=12;entryX=0.25;entryY=0;entryDx=0;entryDy=0;exitX=0.5;exitY=1;exitDx=0;exitDy=0;" edge="1" parent="1" source="otpEntity" target="otpRepository">
          <mxGeometry width="160" relative="1" as="geometry">
            <mxPoint x="135" y="570" as="sourcePoint" />
            <mxPoint x="175" y="610" as="targetPoint" />
            <Array as="points">
              <mxPoint x="135" y="580" />
              <mxPoint x="393" y="580" />
            </Array>
          </mxGeometry>
        </mxCell>
        
        <!-- Security Integration -->
        <mxCell id="edge11" value="" style="endArrow=open;endSize=12;dashed=1;html=1;fontSize=12;entryX=0;entryY=0.5;entryDx=0;entryDy=0;exitX=1;exitY=0.5;exitDx=0;exitDy=0;" edge="1" parent="1" source="authService_methods" target="otpService_methods">
          <mxGeometry width="160" relative="1" as="geometry">
            <mxPoint x="430" y="390" as="sourcePoint" />
            <mxPoint x="590" y="390" as="targetPoint" />
          </mxGeometry>
        </mxCell>
        
        <mxCell id="edge12" value="" style="endArrow=open;endSize=12;dashed=1;html=1;fontSize=12;entryX=0.75;entryY=0;entryDx=0;entryDy=0;exitX=0.75;exitY=1;exitDx=0;exitDy=0;" edge="1" parent="1" source="otpServiceImpl" target="securityConfig">
          <mxGeometry width="160" relative="1" as="geometry">
            <mxPoint x="510" y="500" as="sourcePoint" />
            <mxPoint x="670" y="500" as="targetPoint" />
            <Array as="points">
              <mxPoint x="698" y="550" />
              <mxPoint x="767" y="550" />
            </Array>
          </mxGeometry>
        </mxCell>
        
        <!-- Legend -->
        <mxCell id="legend" value="Legend" style="swimlane;fontStyle=1;align=center;verticalAlign=top;childLayout=stackLayout;horizontal=1;startSize=26;horizontalStack=0;resizeParent=1;resizeParentMax=0;resizeLast=0;collapsible=1;marginBottom=0;" vertex="1" parent="1">
          <mxGeometry x="610" y="740" width="210" height="144" as="geometry" />
        </mxCell>
        <mxCell id="legend_controller" value="Controllers" style="text;strokeColor=#6c8ebf;fillColor=#dae8fc;align=left;verticalAlign=top;spacingLeft=4;spacingRight=4;overflow=hidden;rotatable=0;points=[[0,0.5],[1,0.5]];portConstraint=eastwest;" vertex="1" parent="legend">
          <mxGeometry y="26" width="210" height="24" as="geometry" />
        </mxCell>
        <mxCell id="legend_service" value="Service Interfaces" style="text;strokeColor=#82b366;fillColor=#d5e8d4;align=left;verticalAlign=top;spacingLeft=4;spacingRight=4;overflow=hidden;rotatable=0;points=[[0,0.5],[1,0.5]];portConstraint=eastwest;" vertex="1" parent="legend">
          <mxGeometry y="50" width="210" height="24" as="geometry" />
        </mxCell>
        <mxCell id="legend_implementation" value="Service Implementations" style="text;strokeColor=#d79b00;fillColor=#ffe6cc;align=left;verticalAlign=top;spacingLeft=4;spacingRight=4;overflow=hidden;rotatable=0;points=[[0,0.5],[1,0.5]];portConstraint=eastwest;" vertex="1" parent="legend">
          <mxGeometry y="74" width="210" height="24" as="geometry" />
        </mxCell>
        <mxCell id="legend_entity" value="Entity Classes" style="text;strokeColor=#b85450;fillColor=#f8cecc;align=left;verticalAlign=top;spacingLeft=4;spacingRight=4;overflow=hidden;rotatable=0;points=[[0,0.5],[1,0.5]];portConstraint=eastwest;" vertex="1" parent="legend">
          <mxGeometry y="98" width="210" height="22" as="geometry" />
        </mxCell>
        <mxCell id="legend_repository" value="Repository Interfaces" style="text;strokeColor=#9673a6;fillColor=#e1d5e7;align=left;verticalAlign=top;spacingLeft=4;spacingRight=4;overflow=hidden;rotatable=0;points=[[0,0.5],[1,0.5]];portConstraint=eastwest;" vertex="1" parent="legend">
          <mxGeometry y="120" width="210" height="24" as="geometry" />
        </mxCell>
      </root>
    </mxGraphModel>
  </diagram>
</mxfile>